<svg width="1889" height="714" viewBox="0 0 1889 714" fill="none" xmlns="http://www.w3.org/2000/svg">
<path d="M378.5 167C471.008 167 546 241.992 546 334.5C546 385.715 523.012 431.56 486.794 462.284L439.228 437.44C474.406 416.643 498 378.327 498 334.5C498 268.502 444.498 215 378.5 215C312.502 215 259 268.502 259 334.5C259 400.498 312.502 454 378.5 454C392.818 454 406.547 451.48 419.271 446.862L517.777 498.312C518.779 499.379 519.523 500.641 519.976 502H447.498L431.453 493.453C414.809 498.995 397.006 502 378.5 502C285.992 502 211 427.008 211 334.5C211 241.992 285.992 167 378.5 167Z" fill="#323F4F"/>
<path d="M495.629 664.689C495.629 663.225 495.401 661.923 494.945 660.783C494.522 659.644 493.757 658.602 492.65 657.658C491.544 656.714 489.981 655.803 487.963 654.924C485.977 654.012 483.438 653.085 480.346 652.141C476.96 651.099 473.835 649.943 470.971 648.674C468.139 647.372 465.665 645.874 463.549 644.182C461.433 642.456 459.789 640.487 458.617 638.273C457.445 636.027 456.859 633.439 456.859 630.51C456.859 627.613 457.462 624.976 458.666 622.6C459.903 620.223 461.645 618.173 463.891 616.447C466.169 614.689 468.855 613.339 471.947 612.395C475.04 611.418 478.458 610.93 482.201 610.93C487.475 610.93 492.016 611.906 495.824 613.859C499.665 615.812 502.611 618.433 504.662 621.721C506.745 625.008 507.787 628.638 507.787 632.609H495.629C495.629 630.266 495.124 628.199 494.115 626.408C493.139 624.585 491.641 623.153 489.623 622.111C487.637 621.07 485.115 620.549 482.055 620.549C479.158 620.549 476.749 620.988 474.828 621.867C472.908 622.746 471.475 623.934 470.531 625.432C469.587 626.929 469.115 628.622 469.115 630.51C469.115 631.844 469.424 633.065 470.043 634.172C470.661 635.246 471.605 636.255 472.875 637.199C474.145 638.111 475.74 638.973 477.66 639.787C479.581 640.601 481.843 641.382 484.447 642.131C488.386 643.303 491.82 644.605 494.75 646.037C497.68 647.437 500.121 649.032 502.074 650.822C504.027 652.613 505.492 654.647 506.469 656.926C507.445 659.172 507.934 661.727 507.934 664.592C507.934 667.587 507.331 670.288 506.127 672.697C504.923 675.074 503.197 677.108 500.951 678.801C498.738 680.461 496.068 681.747 492.943 682.658C489.851 683.537 486.4 683.977 482.592 683.977C479.174 683.977 475.805 683.521 472.484 682.609C469.197 681.698 466.202 680.314 463.5 678.459C460.798 676.571 458.65 674.227 457.055 671.428C455.46 668.596 454.662 665.292 454.662 661.516H466.918C466.918 663.827 467.309 665.796 468.09 667.424C468.904 669.051 470.027 670.386 471.459 671.428C472.891 672.437 474.551 673.186 476.439 673.674C478.36 674.162 480.411 674.406 482.592 674.406C485.456 674.406 487.849 673.999 489.77 673.186C491.723 672.372 493.188 671.232 494.164 669.768C495.141 668.303 495.629 666.61 495.629 664.689ZM529.369 640.91V683H517.602V630.168H528.686L529.369 640.91ZM527.465 654.631L523.461 654.582C523.461 650.936 523.917 647.567 524.828 644.475C525.74 641.382 527.074 638.697 528.832 636.418C530.59 634.107 532.771 632.333 535.375 631.096C538.012 629.826 541.055 629.191 544.506 629.191C546.915 629.191 549.112 629.549 551.098 630.266C553.116 630.949 554.857 632.04 556.322 633.537C557.82 635.035 558.959 636.955 559.74 639.299C560.554 641.643 560.961 644.475 560.961 647.795V683H549.193V648.82C549.193 646.249 548.803 644.23 548.021 642.766C547.273 641.301 546.182 640.259 544.75 639.641C543.35 638.99 541.674 638.664 539.721 638.664C537.507 638.664 535.619 639.087 534.057 639.934C532.527 640.78 531.273 641.936 530.297 643.4C529.32 644.865 528.604 646.558 528.148 648.479C527.693 650.399 527.465 652.45 527.465 654.631ZM560.229 651.506L554.711 652.727C554.711 649.536 555.15 646.525 556.029 643.693C556.941 640.829 558.259 638.322 559.984 636.174C561.742 633.993 563.907 632.284 566.479 631.047C569.05 629.81 571.996 629.191 575.316 629.191C578.018 629.191 580.427 629.566 582.543 630.314C584.691 631.031 586.514 632.17 588.012 633.732C589.509 635.295 590.648 637.329 591.43 639.836C592.211 642.31 592.602 645.305 592.602 648.82V683H580.785V648.771C580.785 646.102 580.395 644.035 579.613 642.57C578.865 641.105 577.79 640.096 576.391 639.543C574.991 638.957 573.314 638.664 571.361 638.664C569.538 638.664 567.927 639.006 566.527 639.689C565.16 640.34 564.005 641.268 563.061 642.473C562.117 643.645 561.4 644.995 560.912 646.525C560.456 648.055 560.229 649.715 560.229 651.506ZM634.496 672.404V647.209C634.496 645.321 634.154 643.693 633.471 642.326C632.787 640.959 631.745 639.901 630.346 639.152C628.979 638.404 627.253 638.029 625.17 638.029C623.249 638.029 621.589 638.355 620.189 639.006C618.79 639.657 617.699 640.536 616.918 641.643C616.137 642.749 615.746 644.003 615.746 645.402H604.027C604.027 643.319 604.532 641.301 605.541 639.348C606.55 637.395 608.015 635.653 609.936 634.123C611.856 632.593 614.151 631.389 616.82 630.51C619.49 629.631 622.484 629.191 625.805 629.191C629.776 629.191 633.292 629.859 636.352 631.193C639.444 632.528 641.869 634.546 643.627 637.248C645.417 639.917 646.312 643.27 646.312 647.307V670.793C646.312 673.202 646.475 675.367 646.801 677.287C647.159 679.175 647.663 680.819 648.314 682.219V683H636.254C635.701 681.73 635.261 680.119 634.936 678.166C634.643 676.18 634.496 674.26 634.496 672.404ZM636.205 650.871L636.303 658.146H627.855C625.674 658.146 623.754 658.358 622.094 658.781C620.434 659.172 619.05 659.758 617.943 660.539C616.837 661.32 616.007 662.264 615.453 663.371C614.9 664.478 614.623 665.731 614.623 667.131C614.623 668.531 614.949 669.816 615.6 670.988C616.251 672.128 617.195 673.023 618.432 673.674C619.701 674.325 621.231 674.65 623.021 674.65C625.43 674.65 627.53 674.162 629.32 673.186C631.143 672.176 632.576 670.956 633.617 669.523C634.659 668.059 635.212 666.675 635.277 665.373L639.086 670.598C638.695 671.932 638.028 673.365 637.084 674.895C636.14 676.424 634.903 677.889 633.373 679.289C631.876 680.656 630.069 681.779 627.953 682.658C625.87 683.537 623.461 683.977 620.727 683.977C617.276 683.977 614.2 683.293 611.498 681.926C608.796 680.526 606.68 678.654 605.15 676.311C603.62 673.934 602.855 671.249 602.855 668.254C602.855 665.454 603.376 662.98 604.418 660.832C605.492 658.651 607.055 656.828 609.105 655.363C611.189 653.898 613.728 652.792 616.723 652.043C619.717 651.262 623.135 650.871 626.977 650.871H636.205ZM670.434 640.227V683H658.666V630.168H669.896L670.434 640.227ZM686.596 629.826L686.498 640.764C685.782 640.633 685.001 640.536 684.154 640.471C683.34 640.406 682.527 640.373 681.713 640.373C679.695 640.373 677.921 640.666 676.391 641.252C674.861 641.805 673.575 642.619 672.533 643.693C671.524 644.735 670.743 646.005 670.189 647.502C669.636 648.999 669.311 650.676 669.213 652.531L666.527 652.727C666.527 649.406 666.853 646.33 667.504 643.498C668.155 640.666 669.132 638.176 670.434 636.027C671.768 633.879 673.428 632.202 675.414 630.998C677.432 629.794 679.76 629.191 682.396 629.191C683.113 629.191 683.878 629.257 684.691 629.387C685.538 629.517 686.173 629.663 686.596 629.826ZM720.629 630.168V638.762H690.844V630.168H720.629ZM699.438 617.229H711.205V668.4C711.205 670.028 711.433 671.281 711.889 672.16C712.377 673.007 713.044 673.576 713.891 673.869C714.737 674.162 715.73 674.309 716.869 674.309C717.683 674.309 718.464 674.26 719.213 674.162C719.962 674.064 720.564 673.967 721.02 673.869L721.068 682.854C720.092 683.146 718.952 683.407 717.65 683.635C716.381 683.863 714.916 683.977 713.256 683.977C710.554 683.977 708.161 683.505 706.078 682.561C703.995 681.584 702.367 680.005 701.195 677.824C700.023 675.643 699.438 672.746 699.438 669.133V617.229ZM753.002 683.977C749.096 683.977 745.564 683.342 742.406 682.072C739.281 680.77 736.612 678.964 734.398 676.652C732.217 674.341 730.541 671.623 729.369 668.498C728.197 665.373 727.611 662.004 727.611 658.391V656.438C727.611 652.303 728.214 648.56 729.418 645.207C730.622 641.854 732.299 638.99 734.447 636.613C736.596 634.204 739.135 632.365 742.064 631.096C744.994 629.826 748.168 629.191 751.586 629.191C755.362 629.191 758.666 629.826 761.498 631.096C764.33 632.365 766.674 634.156 768.529 636.467C770.417 638.745 771.817 641.464 772.729 644.621C773.673 647.779 774.145 651.262 774.145 655.07V660.1H733.324V651.652H762.523V650.725C762.458 648.609 762.035 646.623 761.254 644.768C760.505 642.912 759.35 641.415 757.787 640.275C756.225 639.136 754.141 638.566 751.537 638.566C749.584 638.566 747.842 638.99 746.312 639.836C744.815 640.65 743.562 641.838 742.553 643.4C741.544 644.963 740.762 646.851 740.209 649.064C739.688 651.245 739.428 653.703 739.428 656.438V658.391C739.428 660.702 739.737 662.85 740.355 664.836C741.007 666.789 741.951 668.498 743.188 669.963C744.424 671.428 745.922 672.583 747.68 673.43C749.438 674.243 751.439 674.65 753.686 674.65C756.518 674.65 759.04 674.081 761.254 672.941C763.467 671.802 765.388 670.191 767.016 668.107L773.217 674.113C772.077 675.773 770.596 677.368 768.773 678.898C766.951 680.396 764.721 681.617 762.084 682.561C759.48 683.505 756.452 683.977 753.002 683.977ZM795.141 640.227V683H783.373V630.168H794.604L795.141 640.227ZM811.303 629.826L811.205 640.764C810.489 640.633 809.708 640.536 808.861 640.471C808.048 640.406 807.234 640.373 806.42 640.373C804.402 640.373 802.628 640.666 801.098 641.252C799.568 641.805 798.282 642.619 797.24 643.693C796.231 644.735 795.45 646.005 794.896 647.502C794.343 648.999 794.018 650.676 793.92 652.531L791.234 652.727C791.234 649.406 791.56 646.33 792.211 643.498C792.862 640.666 793.839 638.176 795.141 636.027C796.475 633.879 798.135 632.202 800.121 630.998C802.139 629.794 804.467 629.191 807.104 629.191C807.82 629.191 808.585 629.257 809.398 629.387C810.245 629.517 810.88 629.663 811.303 629.826ZM871.752 656.486H853.246V646.77H871.752C874.975 646.77 877.579 646.249 879.564 645.207C881.55 644.165 882.999 642.733 883.91 640.91C884.854 639.055 885.326 636.939 885.326 634.562C885.326 632.316 884.854 630.217 883.91 628.264C882.999 626.278 881.55 624.683 879.564 623.479C877.579 622.274 874.975 621.672 871.752 621.672H857.006V683H844.75V611.906H871.752C877.253 611.906 881.924 612.883 885.766 614.836C889.639 616.757 892.585 619.426 894.604 622.844C896.622 626.229 897.631 630.103 897.631 634.465C897.631 639.055 896.622 642.993 894.604 646.281C892.585 649.569 889.639 652.092 885.766 653.85C881.924 655.607 877.253 656.486 871.752 656.486ZM919.262 640.227V683H907.494V630.168H918.725L919.262 640.227ZM935.424 629.826L935.326 640.764C934.61 640.633 933.829 640.536 932.982 640.471C932.169 640.406 931.355 640.373 930.541 640.373C928.523 640.373 926.749 640.666 925.219 641.252C923.689 641.805 922.403 642.619 921.361 643.693C920.352 644.735 919.571 646.005 919.018 647.502C918.464 648.999 918.139 650.676 918.041 652.531L915.355 652.727C915.355 649.406 915.681 646.33 916.332 643.498C916.983 640.666 917.96 638.176 919.262 636.027C920.596 633.879 922.257 632.202 924.242 630.998C926.26 629.794 928.588 629.191 931.225 629.191C931.941 629.191 932.706 629.257 933.52 629.387C934.366 629.517 935.001 629.663 935.424 629.826ZM939.281 657.17V656.047C939.281 652.238 939.835 648.706 940.941 645.451C942.048 642.163 943.643 639.315 945.727 636.906C947.842 634.465 950.414 632.577 953.441 631.242C956.501 629.875 959.952 629.191 963.793 629.191C967.667 629.191 971.117 629.875 974.145 631.242C977.204 632.577 979.792 634.465 981.908 636.906C984.024 639.315 985.635 642.163 986.742 645.451C987.849 648.706 988.402 652.238 988.402 656.047V657.17C988.402 660.979 987.849 664.51 986.742 667.766C985.635 671.021 984.024 673.869 981.908 676.311C979.792 678.719 977.221 680.607 974.193 681.975C971.166 683.309 967.732 683.977 963.891 683.977C960.017 683.977 956.55 683.309 953.49 681.975C950.463 680.607 947.891 678.719 945.775 676.311C943.66 673.869 942.048 671.021 940.941 667.766C939.835 664.51 939.281 660.979 939.281 657.17ZM951.049 656.047V657.17C951.049 659.546 951.293 661.792 951.781 663.908C952.27 666.024 953.035 667.88 954.076 669.475C955.118 671.07 956.452 672.323 958.08 673.234C959.708 674.146 961.645 674.602 963.891 674.602C966.072 674.602 967.96 674.146 969.555 673.234C971.182 672.323 972.517 671.07 973.559 669.475C974.6 667.88 975.365 666.024 975.854 663.908C976.374 661.792 976.635 659.546 976.635 657.17V656.047C976.635 653.703 976.374 651.49 975.854 649.406C975.365 647.29 974.584 645.419 973.51 643.791C972.468 642.163 971.133 640.894 969.506 639.982C967.911 639.038 966.007 638.566 963.793 638.566C961.579 638.566 959.659 639.038 958.031 639.982C956.436 640.894 955.118 642.163 954.076 643.791C953.035 645.419 952.27 647.29 951.781 649.406C951.293 651.49 951.049 653.703 951.049 656.047ZM1030.49 672.062V608H1042.31V683H1031.62L1030.49 672.062ZM996.117 657.17V656.145C996.117 652.141 996.589 648.495 997.533 645.207C998.477 641.887 999.844 639.038 1001.63 636.662C1003.43 634.253 1005.61 632.414 1008.18 631.145C1010.75 629.842 1013.65 629.191 1016.87 629.191C1020.06 629.191 1022.86 629.81 1025.27 631.047C1027.68 632.284 1029.73 634.058 1031.42 636.369C1033.11 638.648 1034.46 641.382 1035.47 644.572C1036.48 647.73 1037.2 651.245 1037.62 655.119V658.391C1037.2 662.167 1036.48 665.617 1035.47 668.742C1034.46 671.867 1033.11 674.569 1031.42 676.848C1029.73 679.126 1027.66 680.884 1025.22 682.121C1022.81 683.358 1019.99 683.977 1016.77 683.977C1013.58 683.977 1010.7 683.309 1008.13 681.975C1005.59 680.64 1003.43 678.768 1001.63 676.359C999.844 673.951 998.477 671.118 997.533 667.863C996.589 664.576 996.117 661.011 996.117 657.17ZM1007.88 656.145V657.17C1007.88 659.579 1008.1 661.825 1008.52 663.908C1008.98 665.992 1009.68 667.831 1010.62 669.426C1011.56 670.988 1012.78 672.225 1014.28 673.137C1015.81 674.016 1017.63 674.455 1019.75 674.455C1022.42 674.455 1024.62 673.869 1026.34 672.697C1028.07 671.525 1029.42 669.947 1030.39 667.961C1031.4 665.943 1032.09 663.697 1032.45 661.223V652.385C1032.25 650.464 1031.84 648.674 1031.22 647.014C1030.64 645.354 1029.84 643.905 1028.83 642.668C1027.82 641.398 1026.57 640.422 1025.07 639.738C1023.61 639.022 1021.87 638.664 1019.85 638.664C1017.7 638.664 1015.88 639.12 1014.38 640.031C1012.88 640.943 1011.64 642.196 1010.67 643.791C1009.72 645.386 1009.02 647.242 1008.57 649.357C1008.11 651.473 1007.88 653.736 1007.88 656.145ZM1086.4 670.549V630.168H1098.22V683H1087.08L1086.4 670.549ZM1088.06 659.562L1092.02 659.465C1092.02 663.013 1091.62 666.285 1090.84 669.279C1090.06 672.242 1088.86 674.829 1087.23 677.043C1085.6 679.224 1083.52 680.933 1080.98 682.17C1078.44 683.374 1075.4 683.977 1071.85 683.977C1069.28 683.977 1066.92 683.602 1064.77 682.854C1062.62 682.105 1060.77 680.949 1059.2 679.387C1057.67 677.824 1056.49 675.79 1055.64 673.283C1054.79 670.777 1054.37 667.782 1054.37 664.299V630.168H1066.14V664.396C1066.14 666.317 1066.36 667.928 1066.82 669.23C1067.28 670.5 1067.89 671.525 1068.68 672.307C1069.46 673.088 1070.37 673.641 1071.41 673.967C1072.45 674.292 1073.56 674.455 1074.73 674.455C1078.08 674.455 1080.72 673.804 1082.64 672.502C1084.59 671.167 1085.98 669.377 1086.79 667.131C1087.64 664.885 1088.06 662.362 1088.06 659.562ZM1131.86 674.602C1133.78 674.602 1135.51 674.227 1137.04 673.479C1138.6 672.697 1139.85 671.623 1140.79 670.256C1141.77 668.889 1142.31 667.31 1142.41 665.52H1153.49C1153.43 668.938 1152.42 672.046 1150.46 674.846C1148.51 677.645 1145.92 679.875 1142.7 681.535C1139.48 683.163 1135.91 683.977 1132.01 683.977C1127.97 683.977 1124.45 683.293 1121.46 681.926C1118.46 680.526 1115.97 678.605 1113.99 676.164C1112 673.723 1110.51 670.907 1109.5 667.717C1108.52 664.527 1108.03 661.109 1108.03 657.463V655.754C1108.03 652.108 1108.52 648.69 1109.5 645.5C1110.51 642.277 1112 639.445 1113.99 637.004C1115.97 634.562 1118.46 632.658 1121.46 631.291C1124.45 629.891 1127.95 629.191 1131.96 629.191C1136.19 629.191 1139.9 630.038 1143.09 631.73C1146.28 633.391 1148.79 635.718 1150.61 638.713C1152.46 641.675 1153.43 645.126 1153.49 649.064H1142.41C1142.31 647.111 1141.82 645.354 1140.94 643.791C1140.1 642.196 1138.89 640.926 1137.33 639.982C1135.8 639.038 1133.96 638.566 1131.81 638.566C1129.43 638.566 1127.46 639.055 1125.9 640.031C1124.34 640.975 1123.12 642.277 1122.24 643.938C1121.36 645.565 1120.73 647.404 1120.34 649.455C1119.98 651.473 1119.8 653.573 1119.8 655.754V657.463C1119.8 659.644 1119.98 661.76 1120.34 663.811C1120.69 665.861 1121.31 667.701 1122.19 669.328C1123.1 670.923 1124.34 672.209 1125.9 673.186C1127.46 674.13 1129.45 674.602 1131.86 674.602ZM1186.74 630.168V638.762H1156.96V630.168H1186.74ZM1165.55 617.229H1177.32V668.4C1177.32 670.028 1177.55 671.281 1178 672.16C1178.49 673.007 1179.16 673.576 1180 673.869C1180.85 674.162 1181.84 674.309 1182.98 674.309C1183.8 674.309 1184.58 674.26 1185.33 674.162C1186.07 674.064 1186.68 673.967 1187.13 673.869L1187.18 682.854C1186.21 683.146 1185.07 683.407 1183.76 683.635C1182.49 683.863 1181.03 683.977 1179.37 683.977C1176.67 683.977 1174.27 683.505 1172.19 682.561C1170.11 681.584 1168.48 680.005 1167.31 677.824C1166.14 675.643 1165.55 672.746 1165.55 669.133V617.229ZM1263.89 659.855H1276.1C1275.71 664.51 1274.4 668.661 1272.19 672.307C1269.98 675.92 1266.87 678.768 1262.87 680.852C1258.86 682.935 1253.99 683.977 1248.27 683.977C1243.87 683.977 1239.92 683.195 1236.4 681.633C1232.88 680.038 1229.87 677.792 1227.37 674.895C1224.86 671.965 1222.94 668.433 1221.61 664.299C1220.3 660.165 1219.65 655.542 1219.65 650.432V644.523C1219.65 639.413 1220.32 634.79 1221.65 630.656C1223.02 626.522 1224.97 622.99 1227.51 620.061C1230.05 617.098 1233.1 614.836 1236.64 613.273C1240.23 611.711 1244.25 610.93 1248.71 610.93C1254.37 610.93 1259.15 611.971 1263.06 614.055C1266.97 616.138 1269.99 619.019 1272.14 622.697C1274.32 626.376 1275.66 630.591 1276.15 635.344H1263.94C1263.61 632.284 1262.9 629.663 1261.79 627.482C1260.72 625.301 1259.12 623.641 1257.01 622.502C1254.89 621.33 1252.12 620.744 1248.71 620.744C1245.91 620.744 1243.46 621.265 1241.38 622.307C1239.3 623.348 1237.56 624.878 1236.16 626.896C1234.76 628.915 1233.7 631.405 1232.98 634.367C1232.3 637.297 1231.96 640.65 1231.96 644.426V650.432C1231.96 654.012 1232.27 657.268 1232.88 660.197C1233.54 663.094 1234.51 665.585 1235.81 667.668C1237.15 669.751 1238.84 671.363 1240.89 672.502C1242.94 673.641 1245.4 674.211 1248.27 674.211C1251.75 674.211 1254.56 673.658 1256.71 672.551C1258.89 671.444 1260.54 669.833 1261.64 667.717C1262.78 665.568 1263.53 662.948 1263.89 659.855ZM1283.81 657.17V656.047C1283.81 652.238 1284.37 648.706 1285.47 645.451C1286.58 642.163 1288.17 639.315 1290.26 636.906C1292.37 634.465 1294.95 632.577 1297.97 631.242C1301.03 629.875 1304.48 629.191 1308.32 629.191C1312.2 629.191 1315.65 629.875 1318.68 631.242C1321.74 632.577 1324.32 634.465 1326.44 636.906C1328.56 639.315 1330.17 642.163 1331.27 645.451C1332.38 648.706 1332.93 652.238 1332.93 656.047V657.17C1332.93 660.979 1332.38 664.51 1331.27 667.766C1330.17 671.021 1328.56 673.869 1326.44 676.311C1324.32 678.719 1321.75 680.607 1318.72 681.975C1315.7 683.309 1312.26 683.977 1308.42 683.977C1304.55 683.977 1301.08 683.309 1298.02 681.975C1294.99 680.607 1292.42 678.719 1290.31 676.311C1288.19 673.869 1286.58 671.021 1285.47 667.766C1284.37 664.51 1283.81 660.979 1283.81 657.17ZM1295.58 656.047V657.17C1295.58 659.546 1295.82 661.792 1296.31 663.908C1296.8 666.024 1297.57 667.88 1298.61 669.475C1299.65 671.07 1300.98 672.323 1302.61 673.234C1304.24 674.146 1306.18 674.602 1308.42 674.602C1310.6 674.602 1312.49 674.146 1314.09 673.234C1315.71 672.323 1317.05 671.07 1318.09 669.475C1319.13 667.88 1319.9 666.024 1320.38 663.908C1320.91 661.792 1321.17 659.546 1321.17 657.17V656.047C1321.17 653.703 1320.91 651.49 1320.38 649.406C1319.9 647.29 1319.12 645.419 1318.04 643.791C1317 642.163 1315.66 640.894 1314.04 639.982C1312.44 639.038 1310.54 638.566 1308.32 638.566C1306.11 638.566 1304.19 639.038 1302.56 639.982C1300.97 640.894 1299.65 642.163 1298.61 643.791C1297.57 645.419 1296.8 647.29 1296.31 649.406C1295.82 651.49 1295.58 653.703 1295.58 656.047ZM1354.56 640.91V683H1342.8V630.168H1353.88L1354.56 640.91ZM1352.66 654.631L1348.66 654.582C1348.66 650.936 1349.11 647.567 1350.02 644.475C1350.93 641.382 1352.27 638.697 1354.03 636.418C1355.79 634.107 1357.97 632.333 1360.57 631.096C1363.21 629.826 1366.25 629.191 1369.7 629.191C1372.11 629.191 1374.31 629.549 1376.29 630.266C1378.31 630.949 1380.05 632.04 1381.52 633.537C1383.01 635.035 1384.15 636.955 1384.94 639.299C1385.75 641.643 1386.16 644.475 1386.16 647.795V683H1374.39V648.82C1374.39 646.249 1374 644.23 1373.22 642.766C1372.47 641.301 1371.38 640.259 1369.95 639.641C1368.55 638.99 1366.87 638.664 1364.92 638.664C1362.7 638.664 1360.81 639.087 1359.25 639.934C1357.72 640.78 1356.47 641.936 1355.49 643.4C1354.52 644.865 1353.8 646.558 1353.34 648.479C1352.89 650.399 1352.66 652.45 1352.66 654.631ZM1385.42 651.506L1379.91 652.727C1379.91 649.536 1380.35 646.525 1381.22 643.693C1382.14 640.829 1383.45 638.322 1385.18 636.174C1386.94 633.993 1389.1 632.284 1391.67 631.047C1394.25 629.81 1397.19 629.191 1400.51 629.191C1403.21 629.191 1405.62 629.566 1407.74 630.314C1409.89 631.031 1411.71 632.17 1413.21 633.732C1414.7 635.295 1415.84 637.329 1416.62 639.836C1417.41 642.31 1417.8 645.305 1417.8 648.82V683H1405.98V648.771C1405.98 646.102 1405.59 644.035 1404.81 642.57C1404.06 641.105 1402.99 640.096 1401.59 639.543C1400.19 638.957 1398.51 638.664 1396.56 638.664C1394.73 638.664 1393.12 639.006 1391.72 639.689C1390.36 640.34 1389.2 641.268 1388.26 642.473C1387.31 643.645 1386.6 644.995 1386.11 646.525C1385.65 648.055 1385.42 649.715 1385.42 651.506ZM1441.72 640.324V703.312H1429.96V630.168H1440.79L1441.72 640.324ZM1476.15 656.096V657.121C1476.15 660.962 1475.69 664.527 1474.78 667.814C1473.9 671.07 1472.58 673.918 1470.82 676.359C1469.1 678.768 1466.97 680.64 1464.43 681.975C1461.89 683.309 1458.96 683.977 1455.64 683.977C1452.35 683.977 1449.47 683.374 1447 682.17C1444.55 680.933 1442.49 679.191 1440.79 676.945C1439.1 674.699 1437.74 672.062 1436.69 669.035C1435.68 665.975 1434.97 662.622 1434.54 658.977V655.021C1434.97 651.148 1435.68 647.632 1436.69 644.475C1437.74 641.317 1439.1 638.599 1440.79 636.32C1442.49 634.042 1444.55 632.284 1447 631.047C1449.44 629.81 1452.29 629.191 1455.54 629.191C1458.86 629.191 1461.81 629.842 1464.38 631.145C1466.95 632.414 1469.12 634.237 1470.87 636.613C1472.63 638.957 1473.95 641.789 1474.83 645.109C1475.71 648.397 1476.15 652.059 1476.15 656.096ZM1464.38 657.121V656.096C1464.38 653.654 1464.15 651.392 1463.7 649.309C1463.24 647.193 1462.52 645.337 1461.55 643.742C1460.57 642.147 1459.32 640.91 1457.79 640.031C1456.29 639.12 1454.48 638.664 1452.37 638.664C1450.28 638.664 1448.49 639.022 1447 639.738C1445.5 640.422 1444.25 641.382 1443.24 642.619C1442.23 643.856 1441.45 645.305 1440.89 646.965C1440.34 648.592 1439.95 650.367 1439.72 652.287V661.76C1440.11 664.104 1440.78 666.252 1441.72 668.205C1442.67 670.158 1444 671.721 1445.73 672.893C1447.48 674.032 1449.73 674.602 1452.46 674.602C1454.58 674.602 1456.39 674.146 1457.88 673.234C1459.38 672.323 1460.6 671.07 1461.55 669.475C1462.52 667.847 1463.24 665.975 1463.7 663.859C1464.15 661.743 1464.38 659.497 1464.38 657.121ZM1498.75 608V683H1486.94V608H1498.75ZM1524.24 630.168V683H1512.43V630.168H1524.24ZM1511.64 616.301C1511.64 614.51 1512.23 613.029 1513.4 611.857C1514.61 610.653 1516.27 610.051 1518.38 610.051C1520.47 610.051 1522.11 610.653 1523.31 611.857C1524.52 613.029 1525.12 614.51 1525.12 616.301C1525.12 618.059 1524.52 619.523 1523.31 620.695C1522.11 621.867 1520.47 622.453 1518.38 622.453C1516.27 622.453 1514.61 621.867 1513.4 620.695C1512.23 619.523 1511.64 618.059 1511.64 616.301ZM1566.92 672.404V647.209C1566.92 645.321 1566.58 643.693 1565.89 642.326C1565.21 640.959 1564.17 639.901 1562.77 639.152C1561.4 638.404 1559.68 638.029 1557.59 638.029C1555.67 638.029 1554.01 638.355 1552.61 639.006C1551.21 639.657 1550.12 640.536 1549.34 641.643C1548.56 642.749 1548.17 644.003 1548.17 645.402H1536.45C1536.45 643.319 1536.95 641.301 1537.96 639.348C1538.97 637.395 1540.44 635.653 1542.36 634.123C1544.28 632.593 1546.57 631.389 1549.24 630.51C1551.91 629.631 1554.91 629.191 1558.23 629.191C1562.2 629.191 1565.71 629.859 1568.77 631.193C1571.87 632.528 1574.29 634.546 1576.05 637.248C1577.84 639.917 1578.73 643.27 1578.73 647.307V670.793C1578.73 673.202 1578.9 675.367 1579.22 677.287C1579.58 679.175 1580.09 680.819 1580.74 682.219V683H1568.68C1568.12 681.73 1567.68 680.119 1567.36 678.166C1567.06 676.18 1566.92 674.26 1566.92 672.404ZM1568.63 650.871L1568.72 658.146H1560.28C1558.1 658.146 1556.18 658.358 1554.52 658.781C1552.86 659.172 1551.47 659.758 1550.37 660.539C1549.26 661.32 1548.43 662.264 1547.88 663.371C1547.32 664.478 1547.04 665.731 1547.04 667.131C1547.04 668.531 1547.37 669.816 1548.02 670.988C1548.67 672.128 1549.62 673.023 1550.85 673.674C1552.12 674.325 1553.65 674.65 1555.44 674.65C1557.85 674.65 1559.95 674.162 1561.74 673.186C1563.57 672.176 1565 670.956 1566.04 669.523C1567.08 668.059 1567.63 666.675 1567.7 665.373L1571.51 670.598C1571.12 671.932 1570.45 673.365 1569.51 674.895C1568.56 676.424 1567.32 677.889 1565.79 679.289C1564.3 680.656 1562.49 681.779 1560.38 682.658C1558.29 683.537 1555.88 683.977 1553.15 683.977C1549.7 683.977 1546.62 683.293 1543.92 681.926C1541.22 680.526 1539.1 678.654 1537.57 676.311C1536.04 673.934 1535.28 671.249 1535.28 668.254C1535.28 665.454 1535.8 662.98 1536.84 660.832C1537.91 658.651 1539.48 656.828 1541.53 655.363C1543.61 653.898 1546.15 652.792 1549.14 652.043C1552.14 651.262 1555.56 650.871 1559.4 650.871H1568.63ZM1602.71 641.447V683H1590.94V630.168H1602.03L1602.71 641.447ZM1600.61 654.631L1596.8 654.582C1596.83 650.839 1597.35 647.404 1598.36 644.279C1599.4 641.154 1600.84 638.469 1602.66 636.223C1604.52 633.977 1606.73 632.251 1609.3 631.047C1611.87 629.81 1614.74 629.191 1617.89 629.191C1620.43 629.191 1622.73 629.549 1624.78 630.266C1626.86 630.949 1628.64 632.072 1630.1 633.635C1631.6 635.197 1632.74 637.232 1633.52 639.738C1634.3 642.212 1634.69 645.256 1634.69 648.869V683H1622.88V648.82C1622.88 646.281 1622.5 644.279 1621.75 642.814C1621.04 641.317 1619.98 640.259 1618.58 639.641C1617.21 638.99 1615.5 638.664 1613.45 638.664C1611.43 638.664 1609.63 639.087 1608.03 639.934C1606.44 640.78 1605.09 641.936 1603.98 643.4C1602.9 644.865 1602.07 646.558 1601.49 648.479C1600.9 650.399 1600.61 652.45 1600.61 654.631ZM1668.29 674.602C1670.21 674.602 1671.93 674.227 1673.46 673.479C1675.02 672.697 1676.28 671.623 1677.22 670.256C1678.2 668.889 1678.73 667.31 1678.83 665.52H1689.92C1689.85 668.938 1688.84 672.046 1686.89 674.846C1684.94 677.645 1682.35 679.875 1679.12 681.535C1675.9 683.163 1672.34 683.977 1668.43 683.977C1664.4 683.977 1660.88 683.293 1657.88 681.926C1654.89 680.526 1652.4 678.605 1650.41 676.164C1648.43 673.723 1646.93 670.907 1645.92 667.717C1644.95 664.527 1644.46 661.109 1644.46 657.463V655.754C1644.46 652.108 1644.95 648.69 1645.92 645.5C1646.93 642.277 1648.43 639.445 1650.41 637.004C1652.4 634.562 1654.89 632.658 1657.88 631.291C1660.88 629.891 1664.38 629.191 1668.38 629.191C1672.61 629.191 1676.33 630.038 1679.52 631.73C1682.71 633.391 1685.21 635.718 1687.04 638.713C1688.89 641.675 1689.85 645.126 1689.92 649.064H1678.83C1678.73 647.111 1678.25 645.354 1677.37 643.791C1676.52 642.196 1675.32 640.926 1673.75 639.982C1672.22 639.038 1670.38 638.566 1668.24 638.566C1665.86 638.566 1663.89 639.055 1662.33 640.031C1660.77 640.975 1659.54 642.277 1658.67 643.938C1657.79 645.565 1657.15 647.404 1656.76 649.455C1656.4 651.473 1656.22 653.573 1656.22 655.754V657.463C1656.22 659.644 1656.4 661.76 1656.76 663.811C1657.12 665.861 1657.74 667.701 1658.62 669.328C1659.53 670.923 1660.77 672.209 1662.33 673.186C1663.89 674.13 1665.88 674.602 1668.29 674.602ZM1722.24 683.977C1718.33 683.977 1714.8 683.342 1711.64 682.072C1708.52 680.77 1705.85 678.964 1703.64 676.652C1701.46 674.341 1699.78 671.623 1698.61 668.498C1697.44 665.373 1696.85 662.004 1696.85 658.391V656.438C1696.85 652.303 1697.45 648.56 1698.66 645.207C1699.86 641.854 1701.54 638.99 1703.69 636.613C1705.83 634.204 1708.37 632.365 1711.3 631.096C1714.23 629.826 1717.41 629.191 1720.82 629.191C1724.6 629.191 1727.9 629.826 1730.74 631.096C1733.57 632.365 1735.91 634.156 1737.77 636.467C1739.66 638.745 1741.06 641.464 1741.97 644.621C1742.91 647.779 1743.38 651.262 1743.38 655.07V660.1H1702.56V651.652H1731.76V650.725C1731.7 648.609 1731.27 646.623 1730.49 644.768C1729.74 642.912 1728.59 641.415 1727.03 640.275C1725.46 639.136 1723.38 638.566 1720.78 638.566C1718.82 638.566 1717.08 638.99 1715.55 639.836C1714.05 640.65 1712.8 641.838 1711.79 643.4C1710.78 644.963 1710 646.851 1709.45 649.064C1708.93 651.245 1708.67 653.703 1708.67 656.438V658.391C1708.67 660.702 1708.98 662.85 1709.59 664.836C1710.24 666.789 1711.19 668.498 1712.43 669.963C1713.66 671.428 1715.16 672.583 1716.92 673.43C1718.68 674.243 1720.68 674.65 1722.92 674.65C1725.76 674.65 1728.28 674.081 1730.49 672.941C1732.71 671.802 1734.63 670.191 1736.25 668.107L1742.46 674.113C1741.32 675.773 1739.83 677.368 1738.01 678.898C1736.19 680.396 1733.96 681.617 1731.32 682.561C1728.72 683.505 1725.69 683.977 1722.24 683.977Z" fill="#323F4F"/>
<path d="M638.088 211.92V502H593.4V211.92H638.088ZM1225.32 317.368C1231.86 306.392 1240.48 297.899 1251.19 291.888C1262.17 285.616 1275.11 282.48 1290 282.48V328.736H1278.63C1261.13 328.736 1247.8 333.179 1238.65 342.064C1229.77 350.949 1225.32 366.368 1225.32 388.32V502H1180.63V286.008H1225.32V317.368ZM1349.11 504.744C1341.01 504.744 1334.22 502 1328.73 496.512C1323.24 491.024 1320.5 484.229 1320.5 476.128C1320.5 468.027 1323.24 461.232 1328.73 455.744C1334.22 450.256 1341.01 447.512 1349.11 447.512C1356.95 447.512 1363.62 450.256 1369.1 455.744C1374.59 461.232 1377.34 468.027 1377.34 476.128C1377.34 484.229 1374.59 491.024 1369.1 496.512C1363.62 502 1356.95 504.744 1349.11 504.744ZM1410.74 393.024C1410.74 371.333 1415.18 352.125 1424.07 335.4C1433.21 318.675 1445.5 305.739 1460.91 296.592C1476.59 287.184 1493.84 282.48 1512.66 282.48C1529.65 282.48 1544.41 285.877 1556.95 292.672C1569.76 299.205 1579.95 307.437 1587.53 317.368V286.008H1632.61V502H1587.53V469.856C1579.95 480.048 1569.63 488.541 1556.56 495.336C1543.5 502.131 1528.6 505.528 1511.87 505.528C1493.32 505.528 1476.33 500.824 1460.91 491.416C1445.5 481.747 1433.21 468.419 1424.07 451.432C1415.18 434.184 1410.74 414.715 1410.74 393.024ZM1587.53 393.808C1587.53 378.912 1584.39 365.976 1578.12 355C1572.11 344.024 1564.14 335.661 1554.21 329.912C1544.28 324.163 1533.57 321.288 1522.07 321.288C1510.57 321.288 1499.85 324.163 1489.92 329.912C1479.99 335.4 1471.89 343.632 1465.62 354.608C1459.61 365.323 1456.6 378.128 1456.6 393.024C1456.6 407.92 1459.61 420.987 1465.62 432.224C1471.89 443.461 1479.99 452.085 1489.92 458.096C1500.11 463.845 1510.83 466.72 1522.07 466.72C1533.57 466.72 1544.28 463.845 1554.21 458.096C1564.14 452.347 1572.11 443.984 1578.12 433.008C1584.39 421.771 1587.53 408.704 1587.53 393.808ZM1714.04 257.392C1705.94 257.392 1699.15 254.648 1693.66 249.16C1688.17 243.672 1685.43 236.877 1685.43 228.776C1685.43 220.675 1688.17 213.88 1693.66 208.392C1699.15 202.904 1705.94 200.16 1714.04 200.16C1721.88 200.16 1728.55 202.904 1734.03 208.392C1739.52 213.88 1742.27 220.675 1742.27 228.776C1742.27 236.877 1739.52 243.672 1734.03 249.16C1728.55 254.648 1721.88 257.392 1714.04 257.392ZM1735.99 286.008V502H1691.31V286.008H1735.99Z" fill="#323F4F"/>
<path d="M894.719 388.712C894.719 396.813 894.197 404.131 893.151 410.664H728.119C729.426 427.912 735.829 441.763 747.327 452.216C758.826 462.669 772.938 467.896 789.663 467.896C813.706 467.896 830.693 457.835 840.623 437.712H888.839C882.306 457.573 870.415 473.907 853.167 486.712C836.181 499.256 815.013 505.528 789.663 505.528C769.018 505.528 750.463 500.955 733.999 491.808C717.797 482.4 704.991 469.333 695.583 452.608C686.437 435.621 681.863 416.021 681.863 393.808C681.863 371.595 686.306 352.125 695.191 335.4C704.338 318.413 717.013 305.347 733.215 296.2C749.679 287.053 768.495 282.48 789.663 282.48C810.047 282.48 828.21 286.923 844.151 295.808C860.093 304.693 872.506 317.237 881.391 333.44C890.277 349.381 894.719 367.805 894.719 388.712ZM848.071 374.6C847.81 358.136 841.93 344.939 830.431 335.008C818.933 325.077 804.69 320.112 787.703 320.112C772.285 320.112 759.087 325.077 748.111 335.008C737.135 344.677 730.602 357.875 728.511 374.6H848.071ZM1136.66 388.712C1136.66 396.813 1136.13 404.131 1135.09 410.664H970.057C971.364 427.912 977.766 441.763 989.265 452.216C1000.76 462.669 1014.88 467.896 1031.6 467.896C1055.64 467.896 1072.63 457.835 1082.56 437.712H1130.78C1124.24 457.573 1112.35 473.907 1095.1 486.712C1078.12 499.256 1056.95 505.528 1031.6 505.528C1010.96 505.528 992.401 500.955 975.937 491.808C959.734 482.4 946.929 469.333 937.521 452.608C928.374 435.621 923.801 416.021 923.801 393.808C923.801 371.595 928.244 352.125 937.129 335.4C946.276 318.413 958.95 305.347 975.153 296.2C991.617 287.053 1010.43 282.48 1031.6 282.48C1051.98 282.48 1070.15 286.923 1086.09 295.808C1102.03 304.693 1114.44 317.237 1123.33 333.44C1132.21 349.381 1136.66 367.805 1136.66 388.712ZM1090.01 374.6C1089.75 358.136 1083.87 344.939 1072.37 335.008C1060.87 325.077 1046.63 320.112 1029.64 320.112C1014.22 320.112 1001.02 325.077 990.049 335.008C979.073 344.677 972.54 357.875 970.449 374.6H1090.01Z" fill="#4472C4"/>
</svg>
